<?xml version="1.0" standalone="no"?>
<!DOCTYPE svg PUBLIC "-//W3C//DTD SVG 20010904//EN"
 "http://www.w3.org/TR/2001/REC-SVG-20010904/DTD/svg10.dtd">
<svg version="1.0" xmlns="http://www.w3.org/2000/svg"
 width="370.000000pt" height="222.000000pt" viewBox="0 0 370.000000 222.000000"
 preserveAspectRatio="xMidYMid meet">
<metadata>
Created by potrace 1.16, written by Peter Selinger 2001-2019
</metadata>
<g transform="translate(0.000000,222.000000) scale(0.100000,-0.100000)"
fill="#000000" stroke="none">
<path d="M1470 1981 c-219 -96 -477 -222 -675 -331 -232 -127 -499 -292 -503
-310 -1 -8 36 -59 83 -114 47 -54 84 -103 82 -109 -1 -5 -59 -40 -127 -78 -69
-38 -125 -72 -125 -76 1 -4 7 -28 14 -53 24 -83 -10 -234 -59 -260 -13 -7 -20
-19 -18 -32 3 -18 22 -25 148 -54 80 -19 607 -142 1172 -275 l1027 -241 118
102 c65 57 210 187 322 289 252 230 418 378 493 439 59 49 72 80 38 89 -19 5
-20 11 -14 159 l6 154 -68 31 c-166 75 -381 108 -592 89 -142 -12 -324 -50
-421 -86 -35 -13 -65 -24 -67 -24 -2 0 20 37 49 83 58 90 209 352 251 434 30
60 32 81 11 89 -8 4 -98 -35 -200 -84 l-185 -91 0 95 c0 71 -3 96 -14 100 -7
3 -43 -13 -79 -35 -74 -45 -168 -94 -171 -89 -1 2 -10 41 -20 88 -10 47 -24
95 -32 107 l-14 22 -92 -39 -93 -39 -27 60 c-19 41 -32 59 -45 59 -10 -1 -88
-31 -173 -69z m182 -30 l16 -39 -127 -57 c-421 -193 -901 -453 -901 -489 0 -7
39 -84 87 -172 133 -245 363 -747 348 -762 -6 -7 10 -27 -145 183 -143 193
-338 436 -484 603 -50 57 -92 106 -93 110 -3 8 310 196 476 288 222 122 751
371 792 373 10 1 22 -14 31 -38z m244 -68 c8 -32 14 -72 14 -89 0 -35 10 -30
-295 -150 -246 -96 -539 -240 -560 -275 -3 -4 5 -66 19 -136 45 -234 75 -600
59 -725 l-8 -58 -54 133 c-68 170 -214 476 -303 639 -38 70 -67 132 -64 137
19 30 413 244 686 372 226 106 483 219 489 213 2 -1 10 -29 17 -61z m277 -194
c-4 -4 -53 -33 -108 -65 -190 -108 -355 -216 -355 -231 0 -27 -53 -199 -96
-311 -80 -207 -226 -445 -366 -594 -63 -68 -72 -64 -65 24 13 159 -20 543 -67
762 -13 64 -13 71 2 83 54 41 344 175 577 268 261 104 356 147 440 199 l40 25
3 -76 c2 -42 -1 -80 -5 -84z m341 54 c-70 -129 -168 -294 -246 -414 -62 -96
-79 -115 -181 -195 -542 -428 -678 -534 -682 -534 -3 0 12 24 33 53 119 162
237 414 297 632 l28 100 191 116 c105 64 239 142 297 173 101 53 301 155 307
156 2 0 -18 -39 -44 -87z m536 -393 c103 -11 207 -36 284 -69 l48 -21 -108
-86 c-60 -48 -260 -200 -444 -338 l-335 -253 -100 14 c-132 19 -444 21 -565 5
-114 -16 -340 -66 -417 -93 -40 -13 -52 -15 -44 -5 6 8 114 94 239 192 125 98
322 253 437 345 224 177 264 202 390 242 204 64 419 87 615 67z m-2524 -297
c40 -46 269 -334 272 -344 2 -5 -38 18 -90 51 -113 73 -263 151 -338 175 -30
10 -59 21 -64 25 -5 5 18 22 50 39 33 16 77 41 99 55 22 14 41 26 43 26 2 0
14 -12 28 -27z m-91 -275 c176 -69 556 -268 512 -268 -2 0 -92 42 -198 94
-222 107 -305 142 -401 165 -58 14 -68 19 -68 38 0 22 0 22 52 6 29 -8 75 -24
103 -35z m1855 -218 c152 -16 183 -21 172 -32 -7 -7 -43 -6 -103 2 -207 28
-486 13 -775 -40 -59 -11 -109 -18 -111 -16 -2 2 43 15 99 29 222 55 510 78
718 57z m15 -50 c138 -16 155 -20 155 -39 0 -16 -10 -16 -137 -3 -76 8 -248
15 -382 16 -145 1 -224 4 -194 8 183 27 414 34 558 18z m-27 -66 c97 -9 179
-18 181 -20 14 -13 -23 -14 -151 -5 -78 6 -260 14 -403 18 -143 4 -240 10
-215 14 91 12 417 9 588 -7z m-63 -44 c238 -15 245 -16 245 -47 0 -24 -2 -25
-42 -19 -156 25 -395 58 -472 65 l-91 8 100 2 c55 0 172 -3 260 -9z m-195 -35
c126 -15 350 -48 413 -61 21 -4 27 -11 27 -31 0 -23 -3 -25 -32 -19 -141 29
-508 81 -873 125 -65 8 -40 9 125 6 113 -2 266 -11 340 -20z m-233 -40 c230
-29 493 -69 594 -90 38 -8 72 -15 75 -15 2 0 4 -13 4 -30 0 -16 -3 -30 -6 -30
-3 0 -58 13 -122 29 -205 51 -351 82 -577 121 -258 44 -246 50 32 15z m178
-81 c220 -44 481 -107 492 -118 4 -3 4 -9 0 -12 -5 -6 -774 168 -802 181 -26
12 110 -10 310 -51z"/>
<path d="M2852 1792 c-18 -58 -46 -88 -105 -111 -42 -16 -48 -21 -32 -26 88
-30 116 -54 134 -116 14 -46 23 -43 40 13 14 43 58 83 101 93 39 8 46 22 18
30 -70 21 -91 39 -118 98 l-26 58 -12 -39z"/>
</g>
</svg>
