<?xml version="1.0" standalone="no"?>
<!DOCTYPE svg PUBLIC "-//W3C//DTD SVG 20010904//EN"
 "http://www.w3.org/TR/2001/REC-SVG-20010904/DTD/svg10.dtd">
<svg version="1.0" xmlns="http://www.w3.org/2000/svg"
 width="630.000000pt" height="391.000000pt" viewBox="0 0 630.000000 391.000000"
 preserveAspectRatio="xMidYMid meet">
<metadata>
Created by potrace 1.16, written by Peter Selinger 2001-2019
</metadata>
<g transform="translate(0.000000,391.000000) scale(0.100000,-0.100000)"
fill="#000000" stroke="none">
<path d="M2685 3741 c-45 -11 -77 -31 -72 -44 2 -7 15 -11 28 -9 13 1 47 5 75
8 64 8 129 -19 169 -69 27 -34 55 -40 55 -11 0 23 -59 82 -103 102 -50 24
-111 33 -152 23z"/>
<path d="M2550 3466 c-707 -309 -1226 -580 -1855 -966 -215 -132 -235 -146
-235 -167 0 -8 70 -93 155 -189 85 -97 155 -180 155 -184 0 -11 -65 -50 -240
-145 -80 -43 -158 -86 -175 -95 -35 -20 -37 -42 -10 -130 31 -105 3 -309 -56
-394 -12 -18 -37 -43 -56 -56 -40 -27 -45 -65 -10 -80 12 -5 247 -61 522 -124
275 -63 1045 -244 1710 -401 1414 -334 1764 -415 1794 -415 33 0 317 248 1041
909 145 133 358 322 472 419 114 97 210 185 213 195 9 23 -9 44 -45 52 -22 5
-29 13 -33 38 -2 18 -1 40 4 49 5 9 9 56 9 105 0 48 5 138 10 200 11 118 4
163 -25 163 -9 0 -46 15 -84 34 -237 120 -537 174 -895 163 -330 -11 -642 -70
-900 -171 -47 -19 -86 -33 -86 -31 0 2 40 66 89 142 187 294 491 842 491 887
0 9 -10 21 -23 27 -19 8 -50 -3 -197 -71 -96 -45 -244 -117 -329 -161 l-154
-80 7 161 c7 166 3 190 -31 190 -8 0 -63 -29 -122 -64 -58 -35 -152 -87 -208
-115 l-102 -50 -5 27 c-3 15 -8 47 -11 72 -13 91 -57 246 -74 263 -18 18 -23
17 -167 -43 -82 -34 -155 -62 -162 -63 -7 -1 -23 23 -35 53 -38 93 -71 145
-92 147 -11 1 -126 -44 -255 -101z m249 -13 c7 -16 22 -50 32 -76 l19 -48 -67
-31 c-412 -185 -817 -382 -1106 -536 -364 -195 -607 -346 -607 -379 0 -8 45
-97 101 -197 131 -237 343 -662 449 -901 77 -176 210 -501 210 -517 0 -3 -8
-4 -17 -1 -10 2 -45 43 -78 91 -249 358 -727 958 -1063 1335 -63 71 -111 132
-106 137 22 19 402 247 639 383 326 185 957 501 1305 652 146 63 268 115 271
115 3 0 11 -12 18 -27z m439 -155 c11 -51 24 -123 28 -159 l6 -66 -85 -36
c-47 -20 -222 -90 -389 -156 -382 -150 -511 -205 -668 -288 -161 -84 -340
-192 -346 -208 -3 -7 9 -82 26 -166 88 -439 135 -981 115 -1324 l-7 -130 -40
100 c-186 469 -407 939 -628 1335 l-91 165 22 18 c165 134 1082 604 1714 880
246 107 289 125 306 126 12 1 21 -22 37 -91z m496 -200 c-4 -73 -11 -141 -18
-150 -6 -10 -83 -59 -171 -109 -166 -95 -580 -351 -603 -373 -7 -7 -28 -71
-47 -142 -91 -351 -213 -645 -390 -938 -178 -295 -427 -600 -495 -606 -3 0 -6
132 -6 293 -3 409 -36 754 -108 1112 -24 118 -30 167 -22 173 36 28 202 121
331 185 169 85 341 159 566 246 449 172 677 273 869 385 52 30 96 55 97 56 1
0 0 -60 -3 -132z m636 52 c-118 -230 -318 -571 -482 -821 l-129 -196 -277
-220 c-796 -630 -1134 -893 -1111 -862 277 366 482 793 600 1252 15 60 29 110
31 112 25 24 481 302 673 411 223 125 679 359 713 364 1 0 -7 -18 -18 -40z
m885 -790 c172 -20 320 -58 468 -119 42 -18 77 -36 77 -40 0 -16 -370 -303
-1015 -787 -461 -346 -523 -390 -545 -383 -49 16 -269 40 -473 51 -449 26
-949 -42 -1376 -187 -58 -19 -106 -33 -108 -32 -3 4 326 267 832 664 204 160
456 359 560 443 203 162 270 202 441 259 183 62 416 111 609 130 119 12 428
12 530 1z m588 -250 c-3 -11 -116 -103 -262 -212 -276 -207 -768 -583 -1081
-828 -147 -115 -196 -148 -198 -135 -2 9 0 21 5 25 4 4 179 135 388 291 456
341 926 700 1050 803 50 41 93 75 97 75 3 1 4 -8 1 -19z m-9 -85 c-3 -8 -88
-76 -187 -152 -285 -215 -966 -744 -1334 -1036 -10 -7 -13 -4 -13 11 0 15 45
56 158 145 446 350 1359 1046 1374 1047 4 0 5 -7 2 -15z m0 -74 c4 -5 -45 -47
-106 -92 -247 -182 -1172 -892 -1355 -1041 -40 -33 -73 -54 -73 -49 0 16 639
521 1210 956 129 98 251 191 270 207 38 30 46 33 54 19z m-4892 -188 c205
-246 459 -571 436 -557 -7 4 -60 40 -118 80 -241 164 -507 304 -698 367 l-104
34 139 76 c76 42 158 90 183 106 25 16 46 30 46 30 1 1 53 -61 116 -136z
m4888 118 c0 -4 -80 -68 -177 -142 -274 -206 -1152 -887 -1310 -1017 -29 -23
-43 -30 -43 -20 0 15 220 190 765 610 269 207 757 577 763 578 1 0 2 -4 2 -9z
m0 -69 c0 -5 -30 -30 -67 -58 -211 -154 -1080 -825 -1331 -1027 -68 -54 -126
-96 -129 -93 -4 3 -4 8 -2 10 143 122 1505 1174 1522 1175 4 1 7 -3 7 -7z
m-16 -81 c-5 -4 -65 -50 -134 -101 -248 -185 -1033 -795 -1322 -1026 -32 -25
-58 -41 -58 -35 0 14 620 502 1205 947 263 200 309 233 314 228 3 -2 0 -8 -5
-13z m-5249 -119 c123 -42 311 -131 442 -207 102 -60 393 -254 393 -262 0 -3
-15 4 -32 15 -181 109 -595 313 -798 392 -131 51 -160 69 -160 97 0 17 22 12
155 -35z m-18 -91 c150 -60 352 -153 528 -245 189 -98 424 -232 445 -253 8 -9
-5 -4 -30 10 -403 226 -723 374 -935 433 -55 15 -103 30 -106 33 -12 11 -20
61 -9 61 5 0 54 -18 107 -39z m5033 -15 c0 -2 -80 -66 -177 -142 -98 -76 -378
-298 -623 -494 -528 -422 -480 -385 -479 -368 0 7 25 32 55 56 445 352 1214
950 1222 952 1 0 2 -2 2 -4z m-5029 -77 c217 -64 415 -154 819 -372 181 -97
239 -135 240 -159 0 -3 -145 65 -322 152 -431 211 -587 272 -831 325 -21 4
-27 10 -23 21 3 9 6 27 6 40 0 13 2 24 4 24 2 0 50 -14 107 -31z m1 -113 c185
-49 332 -109 696 -286 235 -114 295 -150 141 -84 -140 60 -501 192 -744 273
-213 71 -230 78 -227 99 4 28 17 28 134 -2z m118 -145 c335 -112 899 -326 888
-336 -2 -2 -79 23 -173 56 -233 80 -603 192 -825 248 l-185 47 14 37 c7 20 14
37 15 37 1 0 121 -40 266 -89z m4660 35 c0 -4 -174 -149 -520 -435 -30 -25
-122 -104 -205 -176 -82 -72 -185 -160 -228 -194 -73 -59 -78 -62 -75 -37 2
21 102 105 513 435 281 225 511 410 513 410 1 1 2 -1 2 -3z m-4660 -136 c223
-60 502 -146 445 -137 -11 2 -194 44 -407 92 -373 86 -387 90 -371 107 20 23
6 25 333 -62z m3195 -70 c61 -5 167 -17 238 -26 122 -16 127 -18 121 -38 -4
-11 -8 -22 -9 -24 -1 -1 -44 4 -96 12 -279 44 -730 47 -1029 7 -233 -32 -600
-100 -739 -137 -9 -2 -1 3 17 11 48 22 291 91 424 119 183 40 359 64 578 79
109 8 394 6 495 -3z m1205 -65 c0 -11 -533 -488 -752 -673 -16 -14 -18 -13
-18 9 0 19 21 42 94 99 51 41 172 143 267 226 150 131 399 341 407 343 1 1 2
-1 2 -4z m-1200 -20 c149 -13 245 -25 323 -41 23 -5 27 -11 27 -38 l0 -32
-132 13 c-577 54 -834 62 -1140 33 -225 -21 -233 -21 -133 0 120 25 400 60
555 69 202 13 324 12 500 -4z m30 -120 c151 -13 285 -25 298 -25 17 0 22 -6
22 -25 0 -21 -4 -25 -22 -21 -13 3 -93 10 -178 16 -85 6 -220 15 -300 21 -80
5 -343 13 -585 16 -455 7 -463 9 -180 38 201 20 596 12 945 -20z m-70 -79
c118 -8 254 -18 303 -22 l87 -7 0 -54 c0 -50 -1 -53 -22 -48 -56 12 -352 59
-545 85 -201 28 -498 56 -683 64 -47 2 79 2 280 0 201 -2 462 -10 580 -18z
m-665 -31 c248 -20 519 -53 823 -102 l232 -37 0 -51 0 -52 -112 23 c-261 54
-941 152 -1358 195 -118 12 -219 26 -224 30 -16 15 426 10 639 -6z m-520 -51
c426 -42 1064 -130 1381 -190 76 -15 151 -29 167 -31 26 -5 27 -8 27 -65 0
-52 -2 -59 -17 -54 -53 16 -406 101 -579 140 -378 85 -836 165 -1189 206 -98
11 -182 23 -185 26 -6 7 51 2 395 -32z m180 -84 c303 -47 791 -147 1130 -231
260 -65 265 -67 265 -94 l0 -23 -67 15 c-140 31 -1468 343 -1478 347 -22 10
27 5 150 -14z"/>
<path d="M5330 3263 c0 -35 -40 -84 -83 -102 -28 -13 -37 -21 -27 -25 8 -3 27
-10 42 -15 30 -11 68 -64 68 -93 0 -10 5 -18 10 -18 6 0 10 8 10 18 0 21 36
81 53 87 6 2 26 10 42 16 l30 11 -42 19 c-43 18 -83 67 -83 102 0 9 -4 17 -10
17 -5 0 -10 -8 -10 -17z"/>
<path d="M4895 3128 c-38 -118 -85 -166 -201 -204 -65 -22 -72 -31 -33 -39 55
-12 122 -45 152 -73 34 -32 70 -99 87 -162 l12 -45 27 70 c48 129 78 159 197
199 74 25 74 25 -6 51 -111 36 -156 83 -195 203 -9 28 -18 52 -20 52 -2 0 -11
-24 -20 -52z"/>
<path d="M283 2488 c-37 -46 -47 -198 -18 -278 19 -55 63 -120 81 -120 23 0
26 20 5 46 -55 70 -77 212 -46 299 18 50 19 65 1 65 -7 0 -18 -6 -23 -12z"/>
</g>
</svg>
